<svg width="34" height="34" viewBox="0 0 36 36" fill="none" xmlns="http://www.w3.org/2000/svg">
<path fill-rule="evenodd" clip-rule="evenodd" d="M6.29312 30.6439C2.89551 27.4965 0.768799 22.9966 0.768799 18C0.768799 8.48342 8.48351 0.768707 18.0001 0.768707C27.5167 0.768707 35.2314 8.48342 35.2314 18C35.2314 22.7987 33.2698 27.1393 30.1047 30.2636C26.993 33.3352 22.718 35.2313 18.0001 35.2313C13.4801 35.2313 9.36663 33.491 6.29312 30.6439ZM8.043 28.4287C10.6464 25.7233 14.2902 24.0431 18.3254 24.0431C22.1969 24.0431 25.7082 25.5898 28.2859 28.1047C25.6698 30.7674 22.0278 32.4188 18.0001 32.4188C14.1384 32.4188 10.6313 30.9007 8.043 28.4287ZM24.9333 14.131C24.9333 17.7765 21.9707 20.7391 18.3252 20.7391C14.6798 20.7391 11.7172 17.7765 11.7172 14.131C11.7172 10.4856 14.6798 7.52301 18.3252 7.52301C21.9707 7.52301 24.9333 10.4856 24.9333 14.131Z" fill="#AAABB3"/>
</svg>
