<svg width="140" height="20" viewBox="0 0 140 22" fill="none" xmlns="http://www.w3.org/2000/svg">
<path fill-rule="evenodd" clip-rule="evenodd" d="M47.3889 2.99969C46.7702 2.84271 46.0684 2.76422 45.2835 2.76422C44.3324 2.76422 43.4967 2.88427 42.7764 3.12436C42.0654 3.36445 41.4467 3.67841 40.9204 4.06625C40.394 4.44485 39.9554 4.87424 39.6045 5.35442C39.2628 5.8346 38.9812 6.3194 38.7595 6.80882C38.5933 7.16895 38.464 7.5614 38.3717 7.98618C38.2794 8.41095 38.2193 8.8542 38.1916 9.31591C38.1639 9.76839 38.1686 10.2301 38.2055 10.701C38.2424 11.172 38.3117 11.6291 38.4133 12.0723C38.6256 13.0235 38.9904 13.8638 39.5075 14.5933C40.0246 15.3135 40.7264 15.8999 41.6129 16.3524C42.5363 16.8326 43.4782 17.1142 44.4386 17.1973C45.4082 17.2897 46.3962 17.2158 47.4028 16.9757C49.8683 16.3939 51.4797 14.8888 52.2369 12.4602C52.5139 11.5367 52.6201 10.6318 52.5555 9.7453C52.5001 8.84958 52.3108 7.95386 51.9876 7.05814C51.9137 6.87345 51.8075 6.6426 51.669 6.36557C51.5305 6.07931 51.3458 5.77458 51.1149 5.45138C50.8841 5.12818 50.5978 4.8096 50.2562 4.49564C49.9145 4.17244 49.5036 3.88156 49.0234 3.623C48.5524 3.36445 48.0076 3.15668 47.3889 2.99969ZM44.6187 7.88922C44.8495 7.77841 45.0942 7.723 45.3528 7.723C45.6021 7.723 45.8376 7.77841 46.0592 7.88922C46.2808 8.00003 46.4747 8.16163 46.641 8.37402C46.8072 8.57717 46.9365 8.83573 47.0288 9.14969C47.1211 9.45442 47.1535 9.80071 47.1258 10.1885C47.1073 10.5764 47.038 10.9088 46.918 11.1858C46.8072 11.4536 46.6687 11.6753 46.5024 11.8507C46.3455 12.0169 46.17 12.1416 45.9761 12.2247C45.7822 12.3078 45.5929 12.354 45.4082 12.3632C45.2235 12.3817 45.025 12.3586 44.8126 12.2939C44.6094 12.2201 44.4155 12.1 44.2308 11.9338C44.0461 11.7584 43.8892 11.5367 43.7599 11.2689C43.6306 10.9919 43.5521 10.6503 43.5244 10.2439C43.4967 9.82841 43.529 9.46366 43.6214 9.14969C43.7137 8.83573 43.843 8.57255 44.0092 8.36017C44.1847 8.14778 44.3878 7.9908 44.6187 7.88922ZM86.552 2.99969C85.9333 2.84271 85.2315 2.76422 84.4466 2.76422C83.4955 2.76422 82.6598 2.88427 81.9395 3.12436C81.2285 3.36445 80.6098 3.67841 80.0834 4.06625C79.5571 4.44485 79.1185 4.87424 78.7676 5.35442C78.4259 5.8346 78.1442 6.3194 77.9226 6.80882C77.7564 7.16895 77.6271 7.5614 77.5348 7.98618C77.4424 8.41095 77.3824 8.8542 77.3547 9.31591C77.327 9.76839 77.3316 10.2301 77.3686 10.701C77.4055 11.172 77.4748 11.6291 77.5763 12.0723C77.7887 13.0235 78.1535 13.8638 78.6706 14.5933C79.1877 15.3135 79.8895 15.8999 80.776 16.3524C81.6994 16.8326 82.6413 17.1142 83.6017 17.1973C84.5713 17.2897 85.5593 17.2158 86.5659 16.9757C89.0314 16.3939 90.6428 14.8888 91.4 12.4602C91.677 11.5367 91.7832 10.6318 91.7186 9.7453C91.6632 8.84958 91.4739 7.95386 91.1507 7.05814C91.0768 6.87345 90.9706 6.6426 90.8321 6.36557C90.6936 6.07931 90.5089 5.77458 90.278 5.45138C90.0472 5.12818 89.7609 4.8096 89.4192 4.49564C89.0776 4.17244 88.6667 3.88156 88.1865 3.623C87.7155 3.36445 87.1707 3.15668 86.552 2.99969ZM83.7817 7.88922C84.0126 7.77841 84.2573 7.723 84.5159 7.723C84.7652 7.723 85.0007 7.77841 85.2223 7.88922C85.4439 8.00003 85.6378 8.16163 85.804 8.37402C85.9703 8.57717 86.0995 8.83573 86.1919 9.14969C86.2842 9.45442 86.3165 9.80071 86.2888 10.1885C86.2704 10.5764 86.2011 10.9088 86.0811 11.1858C85.9703 11.4536 85.8317 11.6753 85.6655 11.8507C85.5085 12.0169 85.3331 12.1416 85.1392 12.2247C84.9453 12.3078 84.756 12.354 84.5713 12.3632C84.3866 12.3817 84.1881 12.3586 83.9757 12.2939C83.7725 12.2201 83.5786 12.1 83.3939 11.9338C83.2092 11.7584 83.0522 11.5367 82.923 11.2689C82.7937 10.9919 82.7152 10.6503 82.6875 10.2439C82.6598 9.82841 82.6921 9.46366 82.7844 9.14969C82.8768 8.83573 83.0061 8.57255 83.1723 8.36017C83.3477 8.14778 83.5509 7.9908 83.7817 7.88922ZM99.7746 15.8924H95.4978C94.3486 15.8924 93.417 14.9608 93.417 13.8116C93.417 12.7752 94.1748 11.9157 95.1666 11.7571V7.37983C94.1748 7.2212 93.417 6.36172 93.417 5.32525C93.417 4.17605 94.3486 3.24445 95.4978 3.24445H99.7746C100.924 3.24445 101.855 4.17605 101.855 5.32525C101.855 6.36172 101.098 7.2212 100.106 7.37983V11.7571C101.098 11.9157 101.855 12.7752 101.855 13.8116C101.855 14.9608 100.924 15.8924 99.7746 15.8924ZM30.0272 10.4942L28.7273 12.8153C28.1894 13.7759 27.1744 14.3708 26.0734 14.3708C24.9725 14.3708 23.9575 13.7759 23.4195 12.8153L22.1197 10.4942L20.6782 14.3272C20.324 15.2689 19.4233 15.8924 18.4173 15.8924C16.7797 15.8924 15.6167 14.2974 16.1175 12.7383L18.4081 5.60691C18.8602 4.19916 20.1696 3.24445 21.6482 3.24445C22.9889 3.24445 24.2047 4.03159 24.7534 5.25487L26.0734 8.19795L27.3935 5.25487C27.9422 4.03159 29.158 3.24445 30.4987 3.24445C31.9773 3.24445 33.2867 4.19916 33.7388 5.60691L36.0294 12.7383C36.5302 14.2974 35.3672 15.8924 33.7296 15.8924C32.7236 15.8924 31.8229 15.2689 31.4687 14.3272L30.0272 10.4942ZM67.7273 12.8153L69.0272 10.4942L70.4687 14.3272C70.8229 15.2689 71.7236 15.8924 72.7296 15.8924C74.3672 15.8924 75.5302 14.2974 75.0294 12.7383L72.7388 5.60691C72.2867 4.19916 70.9773 3.24445 69.4987 3.24445C68.158 3.24445 66.9422 4.03159 66.3935 5.25487L65.0734 8.19795L63.7534 5.25487C63.2047 4.03159 61.9889 3.24445 60.6482 3.24445C59.1696 3.24445 57.8602 4.19916 57.4081 5.60691L55.1175 12.7383C54.6167 14.2974 55.7797 15.8924 57.4173 15.8924C58.4233 15.8924 59.324 15.2689 59.6782 14.3272L61.1197 10.4942L62.4195 12.8153C62.9575 13.7759 63.9725 14.3708 65.0734 14.3708C66.1744 14.3708 67.1894 13.7759 67.7273 12.8153ZM117.471 10.4942L116.171 12.8153C115.633 13.7759 114.618 14.3708 113.517 14.3708C112.416 14.3708 111.401 13.7759 110.863 12.8153L109.563 10.4942L108.122 14.3272C107.767 15.2689 106.867 15.8924 105.861 15.8924C104.223 15.8924 103.06 14.2974 103.561 12.7383L105.851 5.60691C106.304 4.19916 107.613 3.24445 109.092 3.24445C110.432 3.24445 111.648 4.03159 112.197 5.25487L113.517 8.19795L114.837 5.25487C115.386 4.03159 116.601 3.24445 117.942 3.24445C119.421 3.24445 120.73 4.19916 121.182 5.60691L123.473 12.7383C123.974 14.2974 122.811 15.8924 121.173 15.8924C120.167 15.8924 119.266 15.2689 118.912 14.3272L117.471 10.4942Z" fill="#E1E2E8"/>
</svg>
