<svg width="20" height="20" viewBox="0 1 22 22" fill="none" xmlns="http://www.w3.org/2000/svg">
<path d="M2.5 6.10311C2.5 5.80693 2.69121 5.54463 2.97318 5.454L6.14878 4.43327C6.4422 4.33896 6.74242 4.55781 6.74242 4.86601V14.2C6.74242 14.4962 6.55122 14.7585 6.26925 14.8491L3.09364 15.8698C2.80022 15.9641 2.5 15.7453 2.5 15.4371V6.10311Z" fill="#636267"/>
<path d="M13.2576 6.10311C13.2576 5.80693 13.4488 5.54463 13.7307 5.454L16.9064 4.43327C17.1998 4.33896 17.5 4.55781 17.5 4.86601V14.2C17.5 14.4962 17.3088 14.7585 17.0268 14.8491L13.8512 15.8698C13.5578 15.9641 13.2576 15.7453 13.2576 15.4371V6.10311Z" fill="#636267"/>
<path d="M7.87678 4.86601C7.87678 4.55781 8.177 4.33896 8.47042 4.43327L11.646 5.454C11.928 5.54463 12.1192 5.80693 12.1192 6.10311V15.4371C12.1192 15.7453 11.819 15.9641 11.5256 15.8698L8.34995 14.8491C8.06798 14.7585 7.87678 14.4962 7.87678 14.2V4.86601Z" fill="#636267"/>
</svg>
