<svg width="108" height="16" viewBox="0 0 108 16" fill="none" xmlns="http://www.w3.org/2000/svg">
<path fill-rule="evenodd" clip-rule="evenodd" d="M31.3889 0.999683C30.7702 0.842701 30.0684 0.76421 29.2835 0.76421C28.3324 0.76421 27.4967 0.884255 26.7764 1.12434C26.0654 1.36443 25.4467 1.6784 24.9204 2.06624C24.394 2.44484 23.9554 2.87423 23.6045 3.35441C23.2628 3.83459 22.9812 4.31939 22.7595 4.8088C22.5933 5.16894 22.464 5.56139 22.3717 5.98617C22.2794 6.41094 22.2193 6.85419 22.1916 7.3159C22.1639 7.76837 22.1686 8.23009 22.2055 8.70103C22.2424 9.17198 22.3117 9.62907 22.4133 10.0723C22.6256 11.0234 22.9904 11.8638 23.5075 12.5933C24.0246 13.3135 24.7264 13.8999 25.6129 14.3524C26.5363 14.8326 27.4782 15.1142 28.4386 15.1973C29.4082 15.2897 30.3962 15.2158 31.4028 14.9757C33.8683 14.3939 35.4797 12.8888 36.2369 10.4602C36.5139 9.53673 36.6201 8.63178 36.5555 7.74529C36.5001 6.84957 36.3108 5.95385 35.9876 5.05813C35.9137 4.87344 35.8075 4.64259 35.669 4.36556C35.5305 4.0793 35.3458 3.77457 35.1149 3.45137C34.8841 3.12817 34.5978 2.80959 34.2562 2.49563C33.9145 2.17243 33.5036 1.88155 33.0234 1.62299C32.5524 1.36444 32.0076 1.15667 31.3889 0.999683ZM28.6187 5.88921C28.8495 5.7784 29.0942 5.72299 29.3528 5.72299C29.6021 5.72299 29.8376 5.7784 30.0592 5.88921C30.2808 6.00002 30.4747 6.16162 30.641 6.37401C30.8072 6.57716 30.9365 6.83572 31.0288 7.14968C31.1211 7.45441 31.1535 7.80069 31.1258 8.18853C31.1073 8.57637 31.038 8.9088 30.918 9.18583C30.8072 9.45362 30.6687 9.67524 30.5024 9.85069C30.3455 10.0169 30.17 10.1416 29.9761 10.2247C29.7822 10.3078 29.5929 10.354 29.4082 10.3632C29.2235 10.3817 29.025 10.3586 28.8126 10.2939C28.6094 10.2201 28.4155 10.1 28.2308 9.9338C28.0461 9.75835 27.8892 9.53673 27.7599 9.26894C27.6306 8.99191 27.5521 8.65024 27.5244 8.24394C27.4967 7.8284 27.529 7.46364 27.6214 7.14968C27.7137 6.83572 27.843 6.57254 28.0092 6.36015C28.1847 6.14777 28.3878 5.99078 28.6187 5.88921ZM70.552 0.999683C69.9333 0.842701 69.2315 0.76421 68.4466 0.76421C67.4955 0.76421 66.6598 0.884255 65.9395 1.12434C65.2285 1.36443 64.6098 1.6784 64.0834 2.06624C63.5571 2.44484 63.1185 2.87423 62.7676 3.35441C62.4259 3.83459 62.1442 4.31939 61.9226 4.8088C61.7564 5.16894 61.6271 5.56139 61.5348 5.98617C61.4424 6.41094 61.3824 6.85419 61.3547 7.3159C61.327 7.76837 61.3316 8.23009 61.3686 8.70103C61.4055 9.17198 61.4748 9.62907 61.5763 10.0723C61.7887 11.0234 62.1535 11.8638 62.6706 12.5933C63.1877 13.3135 63.8895 13.8999 64.776 14.3524C65.6994 14.8326 66.6413 15.1142 67.6017 15.1973C68.5713 15.2897 69.5593 15.2158 70.5659 14.9757C73.0314 14.3939 74.6428 12.8888 75.4 10.4602C75.677 9.53673 75.7832 8.63178 75.7186 7.74529C75.6632 6.84957 75.4739 5.95385 75.1507 5.05813C75.0768 4.87344 74.9706 4.64259 74.8321 4.36556C74.6936 4.0793 74.5089 3.77457 74.278 3.45137C74.0472 3.12817 73.7609 2.80959 73.4192 2.49563C73.0776 2.17243 72.6667 1.88155 72.1865 1.62299C71.7155 1.36444 71.1707 1.15667 70.552 0.999683ZM67.7817 5.88921C68.0126 5.7784 68.2573 5.72299 68.5159 5.72299C68.7652 5.72299 69.0007 5.7784 69.2223 5.88921C69.4439 6.00002 69.6378 6.16162 69.804 6.37401C69.9703 6.57716 70.0995 6.83572 70.1919 7.14968C70.2842 7.45441 70.3165 7.80069 70.2888 8.18853C70.2704 8.57637 70.2011 8.9088 70.0811 9.18583C69.9703 9.45362 69.8317 9.67524 69.6655 9.85069C69.5085 10.0169 69.3331 10.1416 69.1392 10.2247C68.9453 10.3078 68.756 10.354 68.5713 10.3632C68.3866 10.3817 68.1881 10.3586 67.9757 10.2939C67.7725 10.2201 67.5786 10.1 67.3939 9.9338C67.2092 9.75835 67.0522 9.53673 66.923 9.26894C66.7937 8.99191 66.7152 8.65024 66.6875 8.24394C66.6598 7.8284 66.6921 7.46364 66.7844 7.14968C66.8768 6.83572 67.0061 6.57254 67.1723 6.36015C67.3477 6.14777 67.5509 5.99078 67.7817 5.88921ZM83.7746 13.8924H79.4978C78.3486 13.8924 77.417 12.9608 77.417 11.8116C77.417 10.7752 78.1748 9.91568 79.1666 9.75705V5.37982C78.1748 5.22119 77.417 4.36171 77.417 3.32523C77.417 2.17604 78.3486 1.24443 79.4978 1.24443H83.7746C84.9238 1.24443 85.8554 2.17604 85.8554 3.32523C85.8554 4.36171 85.0976 5.22119 84.1058 5.37982V9.75705C85.0976 9.91568 85.8554 10.7752 85.8554 11.8116C85.8554 12.9608 84.9238 13.8924 83.7746 13.8924ZM14.0272 8.49415L12.7273 10.8153C12.1894 11.7759 11.1744 12.3708 10.0734 12.3708C8.97249 12.3708 7.95748 11.7759 7.41955 10.8153L6.11969 8.49415L4.67815 12.3272C4.32401 13.2689 3.4233 13.8924 2.41725 13.8924C0.779659 13.8924 -0.38332 12.2974 0.117475 10.7382L2.40806 3.60689C2.86023 2.19915 4.16964 1.24443 5.64822 1.24443C6.98891 1.24443 8.20467 2.03158 8.75336 3.25485L10.0734 6.19794L11.3935 3.25486C11.9422 2.03158 13.158 1.24443 14.4987 1.24443C15.9773 1.24443 17.2867 2.19915 17.7388 3.6069L20.0294 10.7382C20.5302 12.2974 19.3672 13.8924 17.7296 13.8924C16.7236 13.8924 15.8229 13.2689 15.4687 12.3272L14.0272 8.49415ZM51.7273 10.8153L53.0272 8.49415L54.4687 12.3272C54.8229 13.2689 55.7236 13.8924 56.7296 13.8924C58.3672 13.8924 59.5302 12.2974 59.0294 10.7382L56.7388 3.6069C56.2867 2.19915 54.9773 1.24443 53.4987 1.24443C52.158 1.24443 50.9422 2.03158 50.3935 3.25486L49.0734 6.19794L47.7534 3.25485C47.2047 2.03158 45.9889 1.24443 44.6482 1.24443C43.1696 1.24443 41.8602 2.19915 41.4081 3.60689L39.1175 10.7382C38.6167 12.2974 39.7797 13.8924 41.4173 13.8924C42.4233 13.8924 43.324 13.2689 43.6782 12.3272L45.1197 8.49415L46.4195 10.8153C46.9575 11.7759 47.9725 12.3708 49.0734 12.3708C50.1744 12.3708 51.1894 11.7759 51.7273 10.8153ZM101.471 8.49415L100.171 10.8153C99.6328 11.7759 98.6178 12.3708 97.5168 12.3708C96.4159 12.3708 95.4008 11.7759 94.8629 10.8153L93.5631 8.49415L92.1215 12.3272C91.7674 13.2689 90.8667 13.8924 89.8606 13.8924C88.223 13.8924 87.06 12.2974 87.5608 10.7382L89.8514 3.60689C90.3036 2.19915 91.613 1.24443 93.0916 1.24443C94.4323 1.24443 95.648 2.03158 96.1967 3.25485L97.5168 6.19794L98.8369 3.25486C99.3856 2.03158 100.601 1.24443 101.942 1.24443C103.421 1.24443 104.73 2.19915 105.182 3.6069L107.473 10.7382C107.974 12.2974 106.811 13.8924 105.173 13.8924C104.167 13.8924 103.266 13.2689 102.912 12.3272L101.471 8.49415Z" fill="black"/>
</svg>
