<svg width="21" height="20" viewBox="0 0 21 20" fill="none" xmlns="http://www.w3.org/2000/svg">
<path d="M9.20905 0.620933C9.31909 0.432092 9.47673 0.275407 9.66623 0.166507C9.85574 0.0576061 10.0705 0.000297546 10.289 0.000297546C10.5076 0.000297546 10.7224 0.0576061 10.9119 0.166507C11.1014 0.275407 11.259 0.432092 11.369 0.620933L14.164 5.41893L19.592 6.59493C19.8056 6.64133 20.0032 6.74288 20.1652 6.88947C20.3272 7.03605 20.448 7.22254 20.5155 7.43036C20.583 7.63817 20.5948 7.86004 20.5498 8.07385C20.5048 8.28766 20.4046 8.48595 20.259 8.64893L16.559 12.7899L17.119 18.3149C17.1411 18.5325 17.1058 18.752 17.0165 18.9516C16.9272 19.1513 16.7871 19.324 16.6102 19.4525C16.4333 19.581 16.2257 19.6609 16.0083 19.6841C15.7909 19.7074 15.5711 19.6732 15.371 19.5849L10.289 17.3449L5.20705 19.5849C5.00697 19.6732 4.78724 19.7074 4.5698 19.6841C4.35237 19.6609 4.14483 19.581 3.96792 19.4525C3.79101 19.324 3.65091 19.1513 3.56162 18.9516C3.47232 18.752 3.43696 18.5325 3.45905 18.3149L4.01905 12.7899L0.319048 8.64993C0.173275 8.48696 0.0728031 8.2886 0.0276614 8.07465C-0.0174803 7.86071 -0.00571204 7.63866 0.0617912 7.43069C0.129295 7.22271 0.250171 7.03608 0.412354 6.88943C0.574536 6.74278 0.77235 6.64123 0.986048 6.59493L6.41405 5.41893L9.20905 0.620933Z" fill="#5A25E9"/>
</svg>
